<?xml version="1.0" encoding="utf-8" standalone="no"?>
<!DOCTYPE svg PUBLIC "-//W3C//DTD SVG 1.1//EN"
  "http://www.w3.org/Graphics/SVG/1.1/DTD/svg11.dtd">
<!-- Created with matplotlib (http://matplotlib.org/) -->
<svg height="692pt" version="1.1" viewBox="0 0 1916 692" width="1916pt" xmlns="http://www.w3.org/2000/svg" xmlns:xlink="http://www.w3.org/1999/xlink">
 <defs>
  <style type="text/css">
*{stroke-linecap:butt;stroke-linejoin:round;stroke-miterlimit:100000;}
  </style>
 </defs>
 <g id="figure_1">
  <g id="patch_1">
   <path d="M 0 692.1 
L 1916.1 692.1 
L 1916.1 0 
L 0 0 
z
" style="fill:#ffffff;"/>
  </g>
  <g id="axes_1">
   <g id="patch_2">
    <path d="M 239.5125 622.89 
L 1724.49 622.89 
L 1724.49 69.21 
L 239.5125 69.21 
z
" style="fill:#ffffff;"/>
   </g>
   <g id="line2d_1">
    <defs>
     <path d="M 0 1.5 
C 0.397805 1.5 0.77937 1.341951 1.06066 1.06066 
C 1.341951 0.77937 1.5 0.397805 1.5 0 
C 1.5 -0.397805 1.341951 -0.77937 1.06066 -1.06066 
C 0.77937 -1.341951 0.397805 -1.5 0 -1.5 
C -0.397805 -1.5 -0.77937 -1.341951 -1.06066 -1.06066 
C -1.341951 -0.77937 -1.5 -0.397805 -1.5 0 
C -1.5 0.397805 -1.341951 0.77937 -1.06066 1.06066 
C -0.77937 1.341951 -0.397805 1.5 0 1.5 
z
" id="m9084b005d8" style="stroke:#0000ff;stroke-width:0.5;"/>
    </defs>
    <g clip-path="url(#p5be214a76a)">
     <use style="fill:#0000ff;stroke:#0000ff;stroke-width:0.5;" x="541.490896733" xlink:href="#m9084b005d8" y="203.070539326"/>
     <use style="fill:#0000ff;stroke:#0000ff;stroke-width:0.5;" x="534.609282906" xlink:href="#m9084b005d8" y="256.481796223"/>
     <use style="fill:#0000ff;stroke:#0000ff;stroke-width:0.5;" x="551.390941336" xlink:href="#m9084b005d8" y="185.602144063"/>
     <use style="fill:#0000ff;stroke:#0000ff;stroke-width:0.5;" x="464.87541691" xlink:href="#m9084b005d8" y="219.718665973"/>
     <use style="fill:#0000ff;stroke:#0000ff;stroke-width:0.5;" x="574.443319647" xlink:href="#m9084b005d8" y="166.878695214"/>
     <use style="fill:#0000ff;stroke:#0000ff;stroke-width:0.5;" x="541.490896733" xlink:href="#m9084b005d8" y="203.070539326"/>
     <use style="fill:#0000ff;stroke:#0000ff;stroke-width:0.5;" x="534.609282906" xlink:href="#m9084b005d8" y="256.481796223"/>
     <use style="fill:#0000ff;stroke:#0000ff;stroke-width:0.5;" x="551.390941336" xlink:href="#m9084b005d8" y="185.602144063"/>
     <use style="fill:#0000ff;stroke:#0000ff;stroke-width:0.5;" x="464.87541691" xlink:href="#m9084b005d8" y="219.718665973"/>
     <use style="fill:#0000ff;stroke:#0000ff;stroke-width:0.5;" x="572.941565295" xlink:href="#m9084b005d8" y="169.846937151"/>
     <use style="fill:#0000ff;stroke:#0000ff;stroke-width:0.5;" x="529.319179373" xlink:href="#m9084b005d8" y="171.644565024"/>
     <use style="fill:#0000ff;stroke:#0000ff;stroke-width:0.5;" x="1185.48184862" xlink:href="#m9084b005d8" y="294.79566633"/>
     <use style="fill:#0000ff;stroke:#0000ff;stroke-width:0.5;" x="368.009724471" xlink:href="#m9084b005d8" y="210.80923056"/>
     <use style="fill:#0000ff;stroke:#0000ff;stroke-width:0.5;" x="551.432183913" xlink:href="#m9084b005d8" y="166.402463862"/>
     <use style="fill:#0000ff;stroke:#0000ff;stroke-width:0.5;" x="1443.96926466" xlink:href="#m9084b005d8" y="532.64016"/>
     <use style="fill:#0000ff;stroke:#0000ff;stroke-width:0.5;" x="1205.64142669" xlink:href="#m9084b005d8" y="240.987213464"/>
     <use style="fill:#0000ff;stroke:#0000ff;stroke-width:0.5;" x="863.694195701" xlink:href="#m9084b005d8" y="102.08032056"/>
     <use style="fill:#0000ff;stroke:#0000ff;stroke-width:0.5;" x="1123.87780354" xlink:href="#m9084b005d8" y="178.547221606"/>
     <use style="fill:#0000ff;stroke:#0000ff;stroke-width:0.5;" x="674.698680447" xlink:href="#m9084b005d8" y="531.367897596"/>
     <use style="fill:#0000ff;stroke:#0000ff;stroke-width:0.5;" x="869.319982895" xlink:href="#m9084b005d8" y="99.5344478741"/>
     <use style="fill:#0000ff;stroke:#0000ff;stroke-width:0.5;" x="1519.71433434" xlink:href="#m9084b005d8" y="583.541827803"/>
     <use style="fill:#0000ff;stroke:#0000ff;stroke-width:0.5;" x="1316.55614649" xlink:href="#m9084b005d8" y="394.316550096"/>
     <use style="fill:#0000ff;stroke:#0000ff;stroke-width:0.5;" x="995.169353066" xlink:href="#m9084b005d8" y="543.090760482"/>
     <use style="fill:#0000ff;stroke:#0000ff;stroke-width:0.5;" x="357.268939916" xlink:href="#m9084b005d8" y="193.586386287"/>
     <use style="fill:#0000ff;stroke:#0000ff;stroke-width:0.5;" x="561.964689173" xlink:href="#m9084b005d8" y="175.97778679"/>
     <use style="fill:#0000ff;stroke:#0000ff;stroke-width:0.5;" x="461.227868374" xlink:href="#m9084b005d8" y="233.83482727"/>
     <use style="fill:#0000ff;stroke:#0000ff;stroke-width:0.5;" x="361.289153314" xlink:href="#m9084b005d8" y="157.465213337"/>
     <use style="fill:#0000ff;stroke:#0000ff;stroke-width:0.5;" x="866.358499904" xlink:href="#m9084b005d8" y="103.633503696"/>
     <use style="fill:#0000ff;stroke:#0000ff;stroke-width:0.5;" x="549.197784091" xlink:href="#m9084b005d8" y="186.138671721"/>
     <use style="fill:#0000ff;stroke:#0000ff;stroke-width:0.5;" x="375.594471921" xlink:href="#m9084b005d8" y="214.204030891"/>
     <use style="fill:#0000ff;stroke:#0000ff;stroke-width:0.5;" x="503.730643206" xlink:href="#m9084b005d8" y="169.531334568"/>
     <use style="fill:#0000ff;stroke:#0000ff;stroke-width:0.5;" x="378.890311597" xlink:href="#m9084b005d8" y="220.169109126"/>
     <use style="fill:#0000ff;stroke:#0000ff;stroke-width:0.5;" x="1329.12097299" xlink:href="#m9084b005d8" y="435.810789184"/>
     <use style="fill:#0000ff;stroke:#0000ff;stroke-width:0.5;" x="948.490304562" xlink:href="#m9084b005d8" y="114.401612971"/>
     <use style="fill:#0000ff;stroke:#0000ff;stroke-width:0.5;" x="1344.41980973" xlink:href="#m9084b005d8" y="440.230968"/>
     <use style="fill:#0000ff;stroke:#0000ff;stroke-width:0.5;" x="430.070538873" xlink:href="#m9084b005d8" y="180.385948038"/>
     <use style="fill:#0000ff;stroke:#0000ff;stroke-width:0.5;" x="1004.36040365" xlink:href="#m9084b005d8" y="70.3132804858"/>
     <use style="fill:#0000ff;stroke:#0000ff;stroke-width:0.5;" x="574.443319647" xlink:href="#m9084b005d8" y="166.878695214"/>
     <use style="fill:#0000ff;stroke:#0000ff;stroke-width:0.5;" x="559.994887394" xlink:href="#m9084b005d8" y="176.873701658"/>
     <use style="fill:#0000ff;stroke:#0000ff;stroke-width:0.5;" x="1507.92410109" xlink:href="#m9084b005d8" y="514.071279118"/>
     <use style="fill:#0000ff;stroke:#0000ff;stroke-width:0.5;" x="1475.65650346" xlink:href="#m9084b005d8" y="163.018148845"/>
     <use style="fill:#0000ff;stroke:#0000ff;stroke-width:0.5;" x="354.592111837" xlink:href="#m9084b005d8" y="187.557552631"/>
     <use style="fill:#0000ff;stroke:#0000ff;stroke-width:0.5;" x="912.772999072" xlink:href="#m9084b005d8" y="86.46654456"/>
     <use style="fill:#0000ff;stroke:#0000ff;stroke-width:0.5;" x="358.461851617" xlink:href="#m9084b005d8" y="194.349409926"/>
     <use style="fill:#0000ff;stroke:#0000ff;stroke-width:0.5;" x="376.010731904" xlink:href="#m9084b005d8" y="215.05542961"/>
     <use style="fill:#0000ff;stroke:#0000ff;stroke-width:0.5;" x="574.227559204" xlink:href="#m9084b005d8" y="166.803764039"/>
     <use style="fill:#0000ff;stroke:#0000ff;stroke-width:0.5;" x="550.110071872" xlink:href="#m9084b005d8" y="184.761034379"/>
     <use style="fill:#0000ff;stroke:#0000ff;stroke-width:0.5;" x="357.703897887" xlink:href="#m9084b005d8" y="194.109779991"/>
     <use style="fill:#0000ff;stroke:#0000ff;stroke-width:0.5;" x="551.390941336" xlink:href="#m9084b005d8" y="185.602144063"/>
     <use style="fill:#0000ff;stroke:#0000ff;stroke-width:0.5;" x="479.635828085" xlink:href="#m9084b005d8" y="152.671283578"/>
     <use style="fill:#0000ff;stroke:#0000ff;stroke-width:0.5;" x="561.929715917" xlink:href="#m9084b005d8" y="175.959191171"/>
     <use style="fill:#0000ff;stroke:#0000ff;stroke-width:0.5;" x="889.931449381" xlink:href="#m9084b005d8" y="365.482915022"/>
     <use style="fill:#0000ff;stroke:#0000ff;stroke-width:0.5;" x="373.365211394" xlink:href="#m9084b005d8" y="213.275934204"/>
     <use style="fill:#0000ff;stroke:#0000ff;stroke-width:0.5;" x="549.155668771" xlink:href="#m9084b005d8" y="185.969661898"/>
     <use style="fill:#0000ff;stroke:#0000ff;stroke-width:0.5;" x="479.635828085" xlink:href="#m9084b005d8" y="152.671283578"/>
     <use style="fill:#0000ff;stroke:#0000ff;stroke-width:0.5;" x="947.363170364" xlink:href="#m9084b005d8" y="523.007329319"/>
     <use style="fill:#0000ff;stroke:#0000ff;stroke-width:0.5;" x="1205.14908495" xlink:href="#m9084b005d8" y="329.596852318"/>
     <use style="fill:#0000ff;stroke:#0000ff;stroke-width:0.5;" x="885.877426015" xlink:href="#m9084b005d8" y="130.883141736"/>
     <use style="fill:#0000ff;stroke:#0000ff;stroke-width:0.5;" x="885.877426015" xlink:href="#m9084b005d8" y="130.883141736"/>
     <use style="fill:#0000ff;stroke:#0000ff;stroke-width:0.5;" x="535.906371973" xlink:href="#m9084b005d8" y="256.70930256"/>
     <use style="fill:#0000ff;stroke:#0000ff;stroke-width:0.5;" x="357.703897887" xlink:href="#m9084b005d8" y="194.109779991"/>
     <use style="fill:#0000ff;stroke:#0000ff;stroke-width:0.5;" x="373.490768363" xlink:href="#m9084b005d8" y="212.952716306"/>
     <use style="fill:#0000ff;stroke:#0000ff;stroke-width:0.5;" x="360.599045406" xlink:href="#m9084b005d8" y="158.886059367"/>
     <use style="fill:#0000ff;stroke:#0000ff;stroke-width:0.5;" x="874.777125522" xlink:href="#m9084b005d8" y="113.764590621"/>
     <use style="fill:#0000ff;stroke:#0000ff;stroke-width:0.5;" x="517.890699616" xlink:href="#m9084b005d8" y="214.556562269"/>
     <use style="fill:#0000ff;stroke:#0000ff;stroke-width:0.5;" x="537.072461162" xlink:href="#m9084b005d8" y="161.885622816"/>
     <use style="fill:#0000ff;stroke:#0000ff;stroke-width:0.5;" x="561.949915853" xlink:href="#m9084b005d8" y="175.888954094"/>
     <use style="fill:#0000ff;stroke:#0000ff;stroke-width:0.5;" x="529.319179373" xlink:href="#m9084b005d8" y="171.644565024"/>
     <use style="fill:#0000ff;stroke:#0000ff;stroke-width:0.5;" x="357.703897887" xlink:href="#m9084b005d8" y="194.109779991"/>
     <use style="fill:#0000ff;stroke:#0000ff;stroke-width:0.5;" x="375.479602929" xlink:href="#m9084b005d8" y="214.886863063"/>
     <use style="fill:#0000ff;stroke:#0000ff;stroke-width:0.5;" x="466.143629105" xlink:href="#m9084b005d8" y="184.427047793"/>
     <use style="fill:#0000ff;stroke:#0000ff;stroke-width:0.5;" x="551.390941336" xlink:href="#m9084b005d8" y="185.602144063"/>
     <use style="fill:#0000ff;stroke:#0000ff;stroke-width:0.5;" x="541.18093144" xlink:href="#m9084b005d8" y="202.126238639"/>
     <use style="fill:#0000ff;stroke:#0000ff;stroke-width:0.5;" x="875.200115338" xlink:href="#m9084b005d8" y="116.319287526"/>
     <use style="fill:#0000ff;stroke:#0000ff;stroke-width:0.5;" x="1329.12097299" xlink:href="#m9084b005d8" y="435.810789184"/>
     <use style="fill:#0000ff;stroke:#0000ff;stroke-width:0.5;" x="986.65993185" xlink:href="#m9084b005d8" y="155.437228229"/>
     <use style="fill:#0000ff;stroke:#0000ff;stroke-width:0.5;" x="1329.12097299" xlink:href="#m9084b005d8" y="435.810789184"/>
     <use style="fill:#0000ff;stroke:#0000ff;stroke-width:0.5;" x="371.872026635" xlink:href="#m9084b005d8" y="212.367724595"/>
     <use style="fill:#0000ff;stroke:#0000ff;stroke-width:0.5;" x="357.268939916" xlink:href="#m9084b005d8" y="193.586386287"/>
     <use style="fill:#0000ff;stroke:#0000ff;stroke-width:0.5;" x="368.009724471" xlink:href="#m9084b005d8" y="210.80923056"/>
     <use style="fill:#0000ff;stroke:#0000ff;stroke-width:0.5;" x="423.355493275" xlink:href="#m9084b005d8" y="207.101737843"/>
     <use style="fill:#0000ff;stroke:#0000ff;stroke-width:0.5;" x="547.168264833" xlink:href="#m9084b005d8" y="185.240527903"/>
     <use style="fill:#0000ff;stroke:#0000ff;stroke-width:0.5;" x="574.443319647" xlink:href="#m9084b005d8" y="166.878695214"/>
     <use style="fill:#0000ff;stroke:#0000ff;stroke-width:0.5;" x="561.937603269" xlink:href="#m9084b005d8" y="175.99161744"/>
     <use style="fill:#0000ff;stroke:#0000ff;stroke-width:0.5;" x="378.82583642" xlink:href="#m9084b005d8" y="220.215329668"/>
     <use style="fill:#0000ff;stroke:#0000ff;stroke-width:0.5;" x="375.479601189" xlink:href="#m9084b005d8" y="214.886727467"/>
     <use style="fill:#0000ff;stroke:#0000ff;stroke-width:0.5;" x="465.394430166" xlink:href="#m9084b005d8" y="219.942474946"/>
     <use style="fill:#0000ff;stroke:#0000ff;stroke-width:0.5;" x="356.332056028" xlink:href="#m9084b005d8" y="192.293417192"/>
     <use style="fill:#0000ff;stroke:#0000ff;stroke-width:0.5;" x="551.390941336" xlink:href="#m9084b005d8" y="185.602144063"/>
     <use style="fill:#0000ff;stroke:#0000ff;stroke-width:0.5;" x="551.390941336" xlink:href="#m9084b005d8" y="185.602144063"/>
     <use style="fill:#0000ff;stroke:#0000ff;stroke-width:0.5;" x="529.915891276" xlink:href="#m9084b005d8" y="234.092915789"/>
     <use style="fill:#0000ff;stroke:#0000ff;stroke-width:0.5;" x="542.284076675" xlink:href="#m9084b005d8" y="203.355058867"/>
     <use style="fill:#0000ff;stroke:#0000ff;stroke-width:0.5;" x="561.497965073" xlink:href="#m9084b005d8" y="176.431073256"/>
     <use style="fill:#0000ff;stroke:#0000ff;stroke-width:0.5;" x="551.390941336" xlink:href="#m9084b005d8" y="185.602144063"/>
     <use style="fill:#0000ff;stroke:#0000ff;stroke-width:0.5;" x="574.443319647" xlink:href="#m9084b005d8" y="166.878695214"/>
     <use style="fill:#0000ff;stroke:#0000ff;stroke-width:0.5;" x="373.280132366" xlink:href="#m9084b005d8" y="213.007617"/>
     <use style="fill:#0000ff;stroke:#0000ff;stroke-width:0.5;" x="875.353521999" xlink:href="#m9084b005d8" y="116.148952858"/>
     <use style="fill:#0000ff;stroke:#0000ff;stroke-width:0.5;" x="358.500626077" xlink:href="#m9084b005d8" y="194.595775379"/>
     <use style="fill:#0000ff;stroke:#0000ff;stroke-width:0.5;" x="572.941565295" xlink:href="#m9084b005d8" y="169.846937151"/>
     <use style="fill:#0000ff;stroke:#0000ff;stroke-width:0.5;" x="564.408969436" xlink:href="#m9084b005d8" y="173.897111888"/>
     <use style="fill:#0000ff;stroke:#0000ff;stroke-width:0.5;" x="905.644483381" xlink:href="#m9084b005d8" y="374.683472611"/>
     <use style="fill:#0000ff;stroke:#0000ff;stroke-width:0.5;" x="517.890699616" xlink:href="#m9084b005d8" y="214.556562269"/>
     <use style="fill:#0000ff;stroke:#0000ff;stroke-width:0.5;" x="373.280132366" xlink:href="#m9084b005d8" y="213.007617"/>
     <use style="fill:#0000ff;stroke:#0000ff;stroke-width:0.5;" x="956.645392835" xlink:href="#m9084b005d8" y="123.111346528"/>
     <use style="fill:#0000ff;stroke:#0000ff;stroke-width:0.5;" x="965.081962412" xlink:href="#m9084b005d8" y="112.232732138"/>
     <use style="fill:#0000ff;stroke:#0000ff;stroke-width:0.5;" x="960.553846827" xlink:href="#m9084b005d8" y="124.220045326"/>
     <use style="fill:#0000ff;stroke:#0000ff;stroke-width:0.5;" x="538.017925971" xlink:href="#m9084b005d8" y="160.074174537"/>
     <use style="fill:#0000ff;stroke:#0000ff;stroke-width:0.5;" x="561.675403761" xlink:href="#m9084b005d8" y="175.766787371"/>
     <use style="fill:#0000ff;stroke:#0000ff;stroke-width:0.5;" x="574.443319647" xlink:href="#m9084b005d8" y="166.878695214"/>
     <use style="fill:#0000ff;stroke:#0000ff;stroke-width:0.5;" x="552.014466841" xlink:href="#m9084b005d8" y="196.391022982"/>
     <use style="fill:#0000ff;stroke:#0000ff;stroke-width:0.5;" x="849.52746368" xlink:href="#m9084b005d8" y="106.219997669"/>
     <use style="fill:#0000ff;stroke:#0000ff;stroke-width:0.5;" x="430.479541559" xlink:href="#m9084b005d8" y="181.389799223"/>
     <use style="fill:#0000ff;stroke:#0000ff;stroke-width:0.5;" x="1369.8238926" xlink:href="#m9084b005d8" y="180.476364535"/>
     <use style="fill:#0000ff;stroke:#0000ff;stroke-width:0.5;" x="1369.8238926" xlink:href="#m9084b005d8" y="180.476364535"/>
     <use style="fill:#0000ff;stroke:#0000ff;stroke-width:0.5;" x="1401.64895708" xlink:href="#m9084b005d8" y="344.217078903"/>
     <use style="fill:#0000ff;stroke:#0000ff;stroke-width:0.5;" x="574.443319647" xlink:href="#m9084b005d8" y="166.878695214"/>
     <use style="fill:#0000ff;stroke:#0000ff;stroke-width:0.5;" x="457.780343761" xlink:href="#m9084b005d8" y="237.849610781"/>
     <use style="fill:#0000ff;stroke:#0000ff;stroke-width:0.5;" x="574.443319647" xlink:href="#m9084b005d8" y="166.878695214"/>
     <use style="fill:#0000ff;stroke:#0000ff;stroke-width:0.5;" x="561.949915853" xlink:href="#m9084b005d8" y="175.888954094"/>
     <use style="fill:#0000ff;stroke:#0000ff;stroke-width:0.5;" x="545.209595845" xlink:href="#m9084b005d8" y="211.863653714"/>
     <use style="fill:#0000ff;stroke:#0000ff;stroke-width:0.5;" x="471.296273786" xlink:href="#m9084b005d8" y="236.587464"/>
     <use style="fill:#0000ff;stroke:#0000ff;stroke-width:0.5;" x="885.90538602" xlink:href="#m9084b005d8" y="130.90822344"/>
     <use style="fill:#0000ff;stroke:#0000ff;stroke-width:0.5;" x="549.10680792" xlink:href="#m9084b005d8" y="185.990917673"/>
     <use style="fill:#0000ff;stroke:#0000ff;stroke-width:0.5;" x="400.424503644" xlink:href="#m9084b005d8" y="216.221025673"/>
     <use style="fill:#0000ff;stroke:#0000ff;stroke-width:0.5;" x="430.070538873" xlink:href="#m9084b005d8" y="180.385948038"/>
     <use style="fill:#0000ff;stroke:#0000ff;stroke-width:0.5;" x="562.399864885" xlink:href="#m9084b005d8" y="175.180366611"/>
     <use style="fill:#0000ff;stroke:#0000ff;stroke-width:0.5;" x="504.154900853" xlink:href="#m9084b005d8" y="169.53174706"/>
     <use style="fill:#0000ff;stroke:#0000ff;stroke-width:0.5;" x="555.77180528" xlink:href="#m9084b005d8" y="181.049658649"/>
     <use style="fill:#0000ff;stroke:#0000ff;stroke-width:0.5;" x="375.479601189" xlink:href="#m9084b005d8" y="214.886727467"/>
     <use style="fill:#0000ff;stroke:#0000ff;stroke-width:0.5;" x="561.939549438" xlink:href="#m9084b005d8" y="175.99945921"/>
     <use style="fill:#0000ff;stroke:#0000ff;stroke-width:0.5;" x="461.187670457" xlink:href="#m9084b005d8" y="233.091772099"/>
     <use style="fill:#0000ff;stroke:#0000ff;stroke-width:0.5;" x="461.187670457" xlink:href="#m9084b005d8" y="233.091772099"/>
     <use style="fill:#0000ff;stroke:#0000ff;stroke-width:0.5;" x="875.200115338" xlink:href="#m9084b005d8" y="116.319287526"/>
     <use style="fill:#0000ff;stroke:#0000ff;stroke-width:0.5;" x="875.200115338" xlink:href="#m9084b005d8" y="116.319287526"/>
     <use style="fill:#0000ff;stroke:#0000ff;stroke-width:0.5;" x="1307.24259188" xlink:href="#m9084b005d8" y="383.839545888"/>
     <use style="fill:#0000ff;stroke:#0000ff;stroke-width:0.5;" x="864.963417002" xlink:href="#m9084b005d8" y="116.5162815"/>
     <use style="fill:#0000ff;stroke:#0000ff;stroke-width:0.5;" x="1310.63484135" xlink:href="#m9084b005d8" y="389.100422284"/>
     <use style="fill:#0000ff;stroke:#0000ff;stroke-width:0.5;" x="374.614437048" xlink:href="#m9084b005d8" y="213.504725521"/>
     <use style="fill:#0000ff;stroke:#0000ff;stroke-width:0.5;" x="374.614437048" xlink:href="#m9084b005d8" y="213.504725521"/>
     <use style="fill:#0000ff;stroke:#0000ff;stroke-width:0.5;" x="374.614437048" xlink:href="#m9084b005d8" y="213.504725521"/>
     <use style="fill:#0000ff;stroke:#0000ff;stroke-width:0.5;" x="387.327033066" xlink:href="#m9084b005d8" y="201.363283656"/>
     <use style="fill:#0000ff;stroke:#0000ff;stroke-width:0.5;" x="546.347431979" xlink:href="#m9084b005d8" y="162.875430019"/>
     <use style="fill:#0000ff;stroke:#0000ff;stroke-width:0.5;" x="1401.78059855" xlink:href="#m9084b005d8" y="348.185400135"/>
     <use style="fill:#0000ff;stroke:#0000ff;stroke-width:0.5;" x="503.244249432" xlink:href="#m9084b005d8" y="168.106455698"/>
     <use style="fill:#0000ff;stroke:#0000ff;stroke-width:0.5;" x="504.136346696" xlink:href="#m9084b005d8" y="169.54726062"/>
     <use style="fill:#0000ff;stroke:#0000ff;stroke-width:0.5;" x="357.703897887" xlink:href="#m9084b005d8" y="194.109779991"/>
     <use style="fill:#0000ff;stroke:#0000ff;stroke-width:0.5;" x="375.479602929" xlink:href="#m9084b005d8" y="214.886863063"/>
     <use style="fill:#0000ff;stroke:#0000ff;stroke-width:0.5;" x="468.638256129" xlink:href="#m9084b005d8" y="201.211253094"/>
     <use style="fill:#0000ff;stroke:#0000ff;stroke-width:0.5;" x="357.268939916" xlink:href="#m9084b005d8" y="193.586386287"/>
     <use style="fill:#0000ff;stroke:#0000ff;stroke-width:0.5;" x="885.136499716" xlink:href="#m9084b005d8" y="172.273365226"/>
     <use style="fill:#0000ff;stroke:#0000ff;stroke-width:0.5;" x="1007.63353997" xlink:href="#m9084b005d8" y="566.179126675"/>
     <use style="fill:#0000ff;stroke:#0000ff;stroke-width:0.5;" x="461.222244552" xlink:href="#m9084b005d8" y="233.802891561"/>
     <use style="fill:#0000ff;stroke:#0000ff;stroke-width:0.5;" x="551.390941336" xlink:href="#m9084b005d8" y="185.602144063"/>
     <use style="fill:#0000ff;stroke:#0000ff;stroke-width:0.5;" x="551.788614916" xlink:href="#m9084b005d8" y="196.258065035"/>
     <use style="fill:#0000ff;stroke:#0000ff;stroke-width:0.5;" x="548.484299412" xlink:href="#m9084b005d8" y="185.848961872"/>
     <use style="fill:#0000ff;stroke:#0000ff;stroke-width:0.5;" x="541.18093144" xlink:href="#m9084b005d8" y="202.126238639"/>
    </g>
   </g>
   <g id="patch_3">
    <path d="M 239.5125 622.89 
L 239.5125 69.21 
" style="fill:none;stroke:#000000;stroke-linecap:square;stroke-linejoin:miter;"/>
   </g>
   <g id="patch_4">
    <path d="M 239.5125 69.21 
L 1724.49 69.21 
" style="fill:none;stroke:#000000;stroke-linecap:square;stroke-linejoin:miter;"/>
   </g>
   <g id="patch_5">
    <path d="M 239.5125 622.89 
L 1724.49 622.89 
" style="fill:none;stroke:#000000;stroke-linecap:square;stroke-linejoin:miter;"/>
   </g>
   <g id="patch_6">
    <path d="M 1724.49 622.89 
L 1724.49 69.21 
" style="fill:none;stroke:#000000;stroke-linecap:square;stroke-linejoin:miter;"/>
   </g>
   <g id="matplotlib.axis_1">
    <g id="xtick_1">
     <g id="line2d_2">
      <defs>
       <path d="M 0 0 
L 0 -4 
" id="m6f37ae24d3" style="stroke:#000000;stroke-width:0.5;"/>
      </defs>
      <g>
       <use style="stroke:#000000;stroke-width:0.5;" x="239.5125" xlink:href="#m6f37ae24d3" y="622.89"/>
      </g>
     </g>
     <g id="line2d_3">
      <defs>
       <path d="M 0 0 
L 0 4 
" id="mdbe23b334e" style="stroke:#000000;stroke-width:0.5;"/>
      </defs>
      <g>
       <use style="stroke:#000000;stroke-width:0.5;" x="239.5125" xlink:href="#mdbe23b334e" y="69.21"/>
      </g>
     </g>
     <g id="text_1">
      <!-- −150 -->
      <defs>
       <path d="M 31.78125 66.40625 
Q 24.171875 66.40625 20.328125 58.90625 
Q 16.5 51.421875 16.5 36.375 
Q 16.5 21.390625 20.328125 13.890625 
Q 24.171875 6.390625 31.78125 6.390625 
Q 39.453125 6.390625 43.28125 13.890625 
Q 47.125 21.390625 47.125 36.375 
Q 47.125 51.421875 43.28125 58.90625 
Q 39.453125 66.40625 31.78125 66.40625 
M 31.78125 74.21875 
Q 44.046875 74.21875 50.515625 64.515625 
Q 56.984375 54.828125 56.984375 36.375 
Q 56.984375 17.96875 50.515625 8.265625 
Q 44.046875 -1.421875 31.78125 -1.421875 
Q 19.53125 -1.421875 13.0625 8.265625 
Q 6.59375 17.96875 6.59375 36.375 
Q 6.59375 54.828125 13.0625 64.515625 
Q 19.53125 74.21875 31.78125 74.21875 
" id="BitstreamVeraSans-Roman-30"/>
       <path d="M 10.59375 35.5 
L 73.1875 35.5 
L 73.1875 27.203125 
L 10.59375 27.203125 
z
" id="BitstreamVeraSans-Roman-2212"/>
       <path d="M 12.40625 8.296875 
L 28.515625 8.296875 
L 28.515625 63.921875 
L 10.984375 60.40625 
L 10.984375 69.390625 
L 28.421875 72.90625 
L 38.28125 72.90625 
L 38.28125 8.296875 
L 54.390625 8.296875 
L 54.390625 0 
L 12.40625 0 
z
" id="BitstreamVeraSans-Roman-31"/>
       <path d="M 10.796875 72.90625 
L 49.515625 72.90625 
L 49.515625 64.59375 
L 19.828125 64.59375 
L 19.828125 46.734375 
Q 21.96875 47.46875 24.109375 47.828125 
Q 26.265625 48.1875 28.421875 48.1875 
Q 40.625 48.1875 47.75 41.5 
Q 54.890625 34.8125 54.890625 23.390625 
Q 54.890625 11.625 47.5625 5.09375 
Q 40.234375 -1.421875 26.90625 -1.421875 
Q 22.3125 -1.421875 17.546875 -0.640625 
Q 12.796875 0.140625 7.71875 1.703125 
L 7.71875 11.625 
Q 12.109375 9.234375 16.796875 8.0625 
Q 21.484375 6.890625 26.703125 6.890625 
Q 35.15625 6.890625 40.078125 11.328125 
Q 45.015625 15.765625 45.015625 23.390625 
Q 45.015625 31 40.078125 35.4375 
Q 35.15625 39.890625 26.703125 39.890625 
Q 22.75 39.890625 18.8125 39.015625 
Q 14.890625 38.140625 10.796875 36.28125 
z
" id="BitstreamVeraSans-Roman-35"/>
      </defs>
      <g transform="translate(223.0321875 636.008125)scale(0.12 -0.12)">
       <use xlink:href="#BitstreamVeraSans-Roman-2212"/>
       <use x="83.7890625" xlink:href="#BitstreamVeraSans-Roman-31"/>
       <use x="147.412109375" xlink:href="#BitstreamVeraSans-Roman-35"/>
       <use x="211.03515625" xlink:href="#BitstreamVeraSans-Roman-30"/>
      </g>
     </g>
    </g>
    <g id="xtick_2">
     <g id="line2d_4">
      <g>
       <use style="stroke:#000000;stroke-width:0.5;" x="451.652142857" xlink:href="#m6f37ae24d3" y="622.89"/>
      </g>
     </g>
     <g id="line2d_5">
      <g>
       <use style="stroke:#000000;stroke-width:0.5;" x="451.652142857" xlink:href="#mdbe23b334e" y="69.21"/>
      </g>
     </g>
     <g id="text_2">
      <!-- −100 -->
      <g transform="translate(435.171830357 636.008125)scale(0.12 -0.12)">
       <use xlink:href="#BitstreamVeraSans-Roman-2212"/>
       <use x="83.7890625" xlink:href="#BitstreamVeraSans-Roman-31"/>
       <use x="147.412109375" xlink:href="#BitstreamVeraSans-Roman-30"/>
       <use x="211.03515625" xlink:href="#BitstreamVeraSans-Roman-30"/>
      </g>
     </g>
    </g>
    <g id="xtick_3">
     <g id="line2d_6">
      <g>
       <use style="stroke:#000000;stroke-width:0.5;" x="663.791785714" xlink:href="#m6f37ae24d3" y="622.89"/>
      </g>
     </g>
     <g id="line2d_7">
      <g>
       <use style="stroke:#000000;stroke-width:0.5;" x="663.791785714" xlink:href="#mdbe23b334e" y="69.21"/>
      </g>
     </g>
     <g id="text_3">
      <!-- −50 -->
      <g transform="translate(651.128973214 636.008125)scale(0.12 -0.12)">
       <use xlink:href="#BitstreamVeraSans-Roman-2212"/>
       <use x="83.7890625" xlink:href="#BitstreamVeraSans-Roman-35"/>
       <use x="147.412109375" xlink:href="#BitstreamVeraSans-Roman-30"/>
      </g>
     </g>
    </g>
    <g id="xtick_4">
     <g id="line2d_8">
      <g>
       <use style="stroke:#000000;stroke-width:0.5;" x="875.931428571" xlink:href="#m6f37ae24d3" y="622.89"/>
      </g>
     </g>
     <g id="line2d_9">
      <g>
       <use style="stroke:#000000;stroke-width:0.5;" x="875.931428571" xlink:href="#mdbe23b334e" y="69.21"/>
      </g>
     </g>
     <g id="text_4">
      <!-- 0 -->
      <g transform="translate(872.113928571 636.008125)scale(0.12 -0.12)">
       <use xlink:href="#BitstreamVeraSans-Roman-30"/>
      </g>
     </g>
    </g>
    <g id="xtick_5">
     <g id="line2d_10">
      <g>
       <use style="stroke:#000000;stroke-width:0.5;" x="1088.07107143" xlink:href="#m6f37ae24d3" y="622.89"/>
      </g>
     </g>
     <g id="line2d_11">
      <g>
       <use style="stroke:#000000;stroke-width:0.5;" x="1088.07107143" xlink:href="#mdbe23b334e" y="69.21"/>
      </g>
     </g>
     <g id="text_5">
      <!-- 50 -->
      <g transform="translate(1080.43607143 636.008125)scale(0.12 -0.12)">
       <use xlink:href="#BitstreamVeraSans-Roman-35"/>
       <use x="63.623046875" xlink:href="#BitstreamVeraSans-Roman-30"/>
      </g>
     </g>
    </g>
    <g id="xtick_6">
     <g id="line2d_12">
      <g>
       <use style="stroke:#000000;stroke-width:0.5;" x="1300.21071429" xlink:href="#m6f37ae24d3" y="622.89"/>
      </g>
     </g>
     <g id="line2d_13">
      <g>
       <use style="stroke:#000000;stroke-width:0.5;" x="1300.21071429" xlink:href="#mdbe23b334e" y="69.21"/>
      </g>
     </g>
     <g id="text_6">
      <!-- 100 -->
      <g transform="translate(1288.75821429 636.008125)scale(0.12 -0.12)">
       <use xlink:href="#BitstreamVeraSans-Roman-31"/>
       <use x="63.623046875" xlink:href="#BitstreamVeraSans-Roman-30"/>
       <use x="127.24609375" xlink:href="#BitstreamVeraSans-Roman-30"/>
      </g>
     </g>
    </g>
    <g id="xtick_7">
     <g id="line2d_14">
      <g>
       <use style="stroke:#000000;stroke-width:0.5;" x="1512.35035714" xlink:href="#m6f37ae24d3" y="622.89"/>
      </g>
     </g>
     <g id="line2d_15">
      <g>
       <use style="stroke:#000000;stroke-width:0.5;" x="1512.35035714" xlink:href="#mdbe23b334e" y="69.21"/>
      </g>
     </g>
     <g id="text_7">
      <!-- 150 -->
      <g transform="translate(1500.89785714 636.008125)scale(0.12 -0.12)">
       <use xlink:href="#BitstreamVeraSans-Roman-31"/>
       <use x="63.623046875" xlink:href="#BitstreamVeraSans-Roman-35"/>
       <use x="127.24609375" xlink:href="#BitstreamVeraSans-Roman-30"/>
      </g>
     </g>
    </g>
    <g id="xtick_8">
     <g id="line2d_16">
      <g>
       <use style="stroke:#000000;stroke-width:0.5;" x="1724.49" xlink:href="#m6f37ae24d3" y="622.89"/>
      </g>
     </g>
     <g id="line2d_17">
      <g>
       <use style="stroke:#000000;stroke-width:0.5;" x="1724.49" xlink:href="#mdbe23b334e" y="69.21"/>
      </g>
     </g>
     <g id="text_8">
      <!-- 200 -->
      <defs>
       <path d="M 19.1875 8.296875 
L 53.609375 8.296875 
L 53.609375 0 
L 7.328125 0 
L 7.328125 8.296875 
Q 12.9375 14.109375 22.625 23.890625 
Q 32.328125 33.6875 34.8125 36.53125 
Q 39.546875 41.84375 41.421875 45.53125 
Q 43.3125 49.21875 43.3125 52.78125 
Q 43.3125 58.59375 39.234375 62.25 
Q 35.15625 65.921875 28.609375 65.921875 
Q 23.96875 65.921875 18.8125 64.3125 
Q 13.671875 62.703125 7.8125 59.421875 
L 7.8125 69.390625 
Q 13.765625 71.78125 18.9375 73 
Q 24.125 74.21875 28.421875 74.21875 
Q 39.75 74.21875 46.484375 68.546875 
Q 53.21875 62.890625 53.21875 53.421875 
Q 53.21875 48.921875 51.53125 44.890625 
Q 49.859375 40.875 45.40625 35.40625 
Q 44.1875 33.984375 37.640625 27.21875 
Q 31.109375 20.453125 19.1875 8.296875 
" id="BitstreamVeraSans-Roman-32"/>
      </defs>
      <g transform="translate(1713.0375 636.008125)scale(0.12 -0.12)">
       <use xlink:href="#BitstreamVeraSans-Roman-32"/>
       <use x="63.623046875" xlink:href="#BitstreamVeraSans-Roman-30"/>
       <use x="127.24609375" xlink:href="#BitstreamVeraSans-Roman-30"/>
      </g>
     </g>
    </g>
   </g>
   <g id="matplotlib.axis_2">
    <g id="ytick_1">
     <g id="line2d_18">
      <defs>
       <path d="M 0 0 
L 4 0 
" id="mb6feb50208" style="stroke:#000000;stroke-width:0.5;"/>
      </defs>
      <g>
       <use style="stroke:#000000;stroke-width:0.5;" x="239.5125" xlink:href="#mb6feb50208" y="622.89"/>
      </g>
     </g>
     <g id="line2d_19">
      <defs>
       <path d="M 0 0 
L -4 0 
" id="m115edadf38" style="stroke:#000000;stroke-width:0.5;"/>
      </defs>
      <g>
       <use style="stroke:#000000;stroke-width:0.5;" x="1724.49" xlink:href="#m115edadf38" y="622.89"/>
      </g>
     </g>
     <g id="text_9">
      <!-- −40 -->
      <defs>
       <path d="M 37.796875 64.3125 
L 12.890625 25.390625 
L 37.796875 25.390625 
z
M 35.203125 72.90625 
L 47.609375 72.90625 
L 47.609375 25.390625 
L 58.015625 25.390625 
L 58.015625 17.1875 
L 47.609375 17.1875 
L 47.609375 0 
L 37.796875 0 
L 37.796875 17.1875 
L 4.890625 17.1875 
L 4.890625 26.703125 
z
" id="BitstreamVeraSans-Roman-34"/>
      </defs>
      <g transform="translate(210.186875 626.20125)scale(0.12 -0.12)">
       <use xlink:href="#BitstreamVeraSans-Roman-2212"/>
       <use x="83.7890625" xlink:href="#BitstreamVeraSans-Roman-34"/>
       <use x="147.412109375" xlink:href="#BitstreamVeraSans-Roman-30"/>
      </g>
     </g>
    </g>
    <g id="ytick_2">
     <g id="line2d_20">
      <g>
       <use style="stroke:#000000;stroke-width:0.5;" x="239.5125" xlink:href="#mb6feb50208" y="512.154"/>
      </g>
     </g>
     <g id="line2d_21">
      <g>
       <use style="stroke:#000000;stroke-width:0.5;" x="1724.49" xlink:href="#m115edadf38" y="512.154"/>
      </g>
     </g>
     <g id="text_10">
      <!-- −20 -->
      <g transform="translate(210.186875 515.46525)scale(0.12 -0.12)">
       <use xlink:href="#BitstreamVeraSans-Roman-2212"/>
       <use x="83.7890625" xlink:href="#BitstreamVeraSans-Roman-32"/>
       <use x="147.412109375" xlink:href="#BitstreamVeraSans-Roman-30"/>
      </g>
     </g>
    </g>
    <g id="ytick_3">
     <g id="line2d_22">
      <g>
       <use style="stroke:#000000;stroke-width:0.5;" x="239.5125" xlink:href="#mb6feb50208" y="401.418"/>
      </g>
     </g>
     <g id="line2d_23">
      <g>
       <use style="stroke:#000000;stroke-width:0.5;" x="1724.49" xlink:href="#m115edadf38" y="401.418"/>
      </g>
     </g>
     <g id="text_11">
      <!-- 0 -->
      <g transform="translate(227.8775 404.72925)scale(0.12 -0.12)">
       <use xlink:href="#BitstreamVeraSans-Roman-30"/>
      </g>
     </g>
    </g>
    <g id="ytick_4">
     <g id="line2d_24">
      <g>
       <use style="stroke:#000000;stroke-width:0.5;" x="239.5125" xlink:href="#mb6feb50208" y="290.682"/>
      </g>
     </g>
     <g id="line2d_25">
      <g>
       <use style="stroke:#000000;stroke-width:0.5;" x="1724.49" xlink:href="#m115edadf38" y="290.682"/>
      </g>
     </g>
     <g id="text_12">
      <!-- 20 -->
      <g transform="translate(220.2425 293.99325)scale(0.12 -0.12)">
       <use xlink:href="#BitstreamVeraSans-Roman-32"/>
       <use x="63.623046875" xlink:href="#BitstreamVeraSans-Roman-30"/>
      </g>
     </g>
    </g>
    <g id="ytick_5">
     <g id="line2d_26">
      <g>
       <use style="stroke:#000000;stroke-width:0.5;" x="239.5125" xlink:href="#mb6feb50208" y="179.946"/>
      </g>
     </g>
     <g id="line2d_27">
      <g>
       <use style="stroke:#000000;stroke-width:0.5;" x="1724.49" xlink:href="#m115edadf38" y="179.946"/>
      </g>
     </g>
     <g id="text_13">
      <!-- 40 -->
      <g transform="translate(220.2425 183.25725)scale(0.12 -0.12)">
       <use xlink:href="#BitstreamVeraSans-Roman-34"/>
       <use x="63.623046875" xlink:href="#BitstreamVeraSans-Roman-30"/>
      </g>
     </g>
    </g>
    <g id="ytick_6">
     <g id="line2d_28">
      <g>
       <use style="stroke:#000000;stroke-width:0.5;" x="239.5125" xlink:href="#mb6feb50208" y="69.21"/>
      </g>
     </g>
     <g id="line2d_29">
      <g>
       <use style="stroke:#000000;stroke-width:0.5;" x="1724.49" xlink:href="#m115edadf38" y="69.21"/>
      </g>
     </g>
     <g id="text_14">
      <!-- 60 -->
      <defs>
       <path d="M 33.015625 40.375 
Q 26.375 40.375 22.484375 35.828125 
Q 18.609375 31.296875 18.609375 23.390625 
Q 18.609375 15.53125 22.484375 10.953125 
Q 26.375 6.390625 33.015625 6.390625 
Q 39.65625 6.390625 43.53125 10.953125 
Q 47.40625 15.53125 47.40625 23.390625 
Q 47.40625 31.296875 43.53125 35.828125 
Q 39.65625 40.375 33.015625 40.375 
M 52.59375 71.296875 
L 52.59375 62.3125 
Q 48.875 64.0625 45.09375 64.984375 
Q 41.3125 65.921875 37.59375 65.921875 
Q 27.828125 65.921875 22.671875 59.328125 
Q 17.53125 52.734375 16.796875 39.40625 
Q 19.671875 43.65625 24.015625 45.921875 
Q 28.375 48.1875 33.59375 48.1875 
Q 44.578125 48.1875 50.953125 41.515625 
Q 57.328125 34.859375 57.328125 23.390625 
Q 57.328125 12.15625 50.6875 5.359375 
Q 44.046875 -1.421875 33.015625 -1.421875 
Q 20.359375 -1.421875 13.671875 8.265625 
Q 6.984375 17.96875 6.984375 36.375 
Q 6.984375 53.65625 15.1875 63.9375 
Q 23.390625 74.21875 37.203125 74.21875 
Q 40.921875 74.21875 44.703125 73.484375 
Q 48.484375 72.75 52.59375 71.296875 
" id="BitstreamVeraSans-Roman-36"/>
      </defs>
      <g transform="translate(220.2425 72.52125)scale(0.12 -0.12)">
       <use xlink:href="#BitstreamVeraSans-Roman-36"/>
       <use x="63.623046875" xlink:href="#BitstreamVeraSans-Roman-30"/>
      </g>
     </g>
    </g>
   </g>
  </g>
 </g>
 <defs>
  <clipPath id="p5be214a76a">
   <rect height="553.68" width="1484.9775" x="239.5125" y="69.21"/>
  </clipPath>
 </defs>
</svg>
